HIERARCHY
ROOT Joint1
{
	OFFSET 0.000000 0.000000 0.000000
	CHANNELS 6 Xposition Yposition Zposition Xrotation Yrotation Zrotation
	JOINT Joint2
	{
		OFFSET -0.000000 0.000000 1.456275
		CHANNELS 6 Xposition Yposition Zposition Xrotation Yrotation Zrotation
		JOINT Joint3
		{
			OFFSET -0.000000 0.000002 1.471446
			CHANNELS 6 Xposition Yposition Zposition Xrotation Yrotation Zrotation
			JOINT Joint4
			{
				OFFSET 0.625745 0.000000 0.917755
				CHANNELS 6 Xposition Yposition Zposition Xrotation Yrotation Zrotation
				JOINT Joint5
				{
					OFFSET -0.629534 0.000001 0.940221
					CHANNELS 6 Xposition Yposition Zposition Xrotation Yrotation Zrotation
					JOINT Joint6
					{
						OFFSET -0.000001 0.113772 1.960660
						CHANNELS 6 Xposition Yposition Zposition Xrotation Yrotation Zrotation
						JOINT Joint7
						{
							OFFSET -0.669733 -0.113771 0.388340
							CHANNELS 6 Xposition Yposition Zposition Xrotation Yrotation Zrotation
							End Site
							{
								OFFSET 0.005509 0.005509 0.438980
							}
						}
					}
				}
			}
		}
	}
}
MOTION
Frames: 12
Frame Time: 0.041667
0.000000 0.000000 0.000000 -0.000000 1.019410 16.847273 -0.000000 0.000000 1.456275 -0.000000 -16.898969 0.000000 -0.000000 0.000002 1.471446 -0.000001 -1.133461 -34.872890 0.625745 0.000000 0.917755 -0.000004 117.153044 -0.000003 -0.629533 0.000001 0.940221 -0.000002 1.709737 75.236945 -0.000001 0.113772 1.960660 -88.303882 140.241651 0.000002 -0.669733 -0.113771 0.388340 0.280389 2.801079 59.304866 
0.000000 0.000000 0.000000 -0.000000 1.019410 17.336443 -0.000000 0.000000 1.456275 -0.000000 -16.084177 -0.000002 -0.000000 0.000002 1.471446 -0.000000 -1.133462 -35.883772 0.625745 0.000000 0.917755 -0.000000 116.634578 -0.000002 -0.629534 0.000001 0.940221 0.000001 1.709737 77.420679 -0.000001 0.113772 1.960660 -88.303882 141.700129 0.000002 -0.669734 -0.113771 0.388340 0.289294 2.763171 57.110401 
0.000000 0.000000 0.000000 -0.000000 1.019410 17.900840 -0.000000 -0.000000 1.456275 -0.000000 -15.144080 0.000001 -0.000000 0.000002 1.471445 -0.000001 -1.133462 -37.050119 0.625745 0.000000 0.917755 0.000004 116.036390 -0.000006 -0.629534 0.000001 0.940221 0.000000 1.709733 79.940247 -0.000001 0.113771 1.960660 -88.303882 143.382924 0.000002 -0.669733 -0.113771 0.388340 0.297756 2.719048 54.578560 
0.000000 0.000000 0.000000 -0.000000 1.019410 18.465200 -0.000000 -0.000000 1.456275 0.000000 -14.204038 0.000001 -0.000000 0.000002 1.471446 -0.000001 -1.133464 -38.216391 0.625745 0.000000 0.917755 -0.000001 115.438257 0.000004 -0.629534 0.000001 0.940221 -0.000001 1.709736 82.459665 -0.000001 0.113772 1.960660 -88.303882 145.065609 0.000002 -0.669733 -0.113771 0.388339 0.304258 2.674597 52.046950 
0.000000 0.000000 0.000000 -0.000000 1.019410 18.954403 -0.000000 0.000000 1.456275 -0.000000 -13.389191 -0.000000 -0.000000 0.000002 1.471446 -0.000002 -1.133464 -39.227334 0.625745 0.000000 0.917755 -0.000001 114.919763 -0.000002 -0.629533 0.000001 0.940221 0.000001 1.709736 84.643550 -0.000001 0.113772 1.960660 -88.303875 146.524210 -0.000001 -0.669733 -0.113771 0.388340 0.308296 2.635872 49.852588 
0.000000 0.000000 0.000000 -0.000000 1.019410 19.322530 -0.000000 0.000000 1.456275 -0.000000 -12.776017 0.000001 -0.000000 0.000002 1.471445 -0.000001 -1.133464 -39.988084 0.625745 0.000000 0.917755 0.000001 114.529602 -0.000002 -0.629534 0.000001 0.940221 0.000000 1.709738 86.286920 -0.000001 0.113772 1.960660 -88.303882 147.621794 0.000002 -0.669733 -0.113771 0.388339 0.310359 2.606637 48.201372 
0.000000 0.000000 0.000000 -0.000000 1.019410 19.640383 -0.000000 -0.000000 1.456275 -0.000000 -12.246574 -0.000002 -0.000000 0.000002 1.471445 -0.000001 -1.133464 -40.644943 0.625745 0.000000 0.917755 0.000004 114.192710 -0.000003 -0.629533 0.000001 0.940221 -0.000002 1.709735 87.705899 -0.000001 0.113771 1.960660 -88.303882 148.569524 0.000001 -0.669733 -0.113771 0.388339 0.311458 2.581366 46.775652 
0.000000 0.000000 0.000000 -0.000000 1.019410 20.007967 -0.000000 0.000000 1.456275 0.000000 -11.634301 0.000001 -0.000000 0.000002 1.471446 -0.000001 -1.133463 -41.404569 0.625745 0.000000 0.917755 0.000004 113.803123 -0.000005 -0.629533 0.000001 0.940221 -0.000001 1.709734 89.346852 -0.000001 0.113772 1.960661 -88.303875 149.665496 0.000000 -0.669734 -0.113771 0.388339 0.311946 2.552109 45.126940 
0.000000 0.000000 0.000000 -0.000000 1.019410 20.496423 -0.000000 0.000000 1.456275 -0.000000 -10.820695 -0.000001 -0.000000 0.000002 1.471445 -0.000001 -1.133464 -42.413976 0.625745 0.000000 0.917755 0.000002 113.285422 -0.000004 -0.629534 0.000001 0.940220 -0.000000 1.709737 91.527404 -0.000001 0.113772 1.960661 -88.303875 151.121870 -0.000001 -0.669734 -0.113771 0.388339 0.311288 2.513237 42.936140 
0.000000 0.000000 0.000000 -0.000000 1.019410 21.061529 -0.000000 -0.000000 1.456275 0.000000 -9.879411 -0.000000 -0.000000 0.000002 1.471446 -0.000002 -1.133463 -43.581788 0.625745 0.000000 0.917755 0.000002 112.686483 -0.000006 -0.629534 0.000001 0.940221 -0.000002 1.709736 94.050154 -0.000001 0.113772 1.960661 -88.303875 152.806782 -0.000002 -0.669733 -0.113771 0.388340 0.308671 2.468331 40.401617 
0.000000 0.000000 0.000000 -0.000000 1.019410 21.628434 -0.000000 -0.000000 1.456275 -0.000000 -8.935137 0.000000 -0.000000 0.000002 1.471446 -0.000001 -1.133464 -44.753312 0.625745 0.000000 0.917755 0.000004 112.085638 -0.000002 -0.629534 0.000001 0.940220 -0.000002 1.709735 96.580917 -0.000001 0.113771 1.960660 -88.303882 154.497049 -0.000001 -0.669733 -0.113771 0.388340 0.304053 2.423446 37.859120 
0.000000 0.000000 0.000000 -0.000000 1.019410 22.115097 -0.000000 -0.000000 1.456275 0.000000 -8.124519 0.000002 -0.000000 0.000002 1.471446 -0.000002 -1.133464 -45.759016 0.625745 0.000000 0.917755 0.000007 111.569836 -0.000004 -0.629534 0.000001 0.940220 -0.000002 1.709735 98.753450 -0.000001 0.113772 1.960661 -88.303882 155.948068 -0.000003 -0.669733 -0.113771 0.388340 0.298503 2.385110 35.676571 
